# xmcd
#
# Track frame offsets:
#	187
#	16300
#	29412
#	47725
#
# Disc length: 832 seconds
# Revision: 0
# Processed by: cddbd v1.5.2PL0 Copyright (c) Steve Scherf et al.
# Submitted via: dBpowerAMP V12.0
#
DISCID=29033e04
DTITLE=Various Artist - Cow Cow Boogie III
DYEAR=1988
DGENRE=Country
TTITLE0=Ronnie Milsap - Button Off My Shirt
TTITLE1=Baillie And The Boys - Long Shot
TTITLE2=Kenny Rogers - I Don't Call Him Daddy
TTITLE3=Bob McDill - Song Of The South
EXTD=
EXTT0=
EXTT1=
EXTT2=
EXTT3=
PLAYORDER=
